<?xml version="1.0" encoding="utf-8"?>
<!-- Generator: Adobe Illustrator 16.0.0, SVG Export Plug-In . SVG Version: 6.00 Build 0)  -->
<!DOCTYPE svg PUBLIC "-//W3C//DTD SVG 1.1//EN" "http://www.w3.org/Graphics/SVG/1.1/DTD/svg11.dtd">
<svg version="1.1" id="Réteg_1" xmlns="http://www.w3.org/2000/svg" xmlns:xlink="http://www.w3.org/1999/xlink" x="0px" y="0px"
	 width="549px" height="84px" viewBox="0 0 549 84" enable-background="new 0 0 549 84" xml:space="preserve">
<g>
	<path fill="#939598" d="M540.986,73.867c4.105,0.149,4.101-0.454,0.74-0.788c-0.073-0.01-0.449-0.049-0.524-0.067
		c-80.955-6.073-148.344-8.283-199.157-9.191c-176.554-3.156-250.157,2.443-250.157,2.443s-11.33,0.524-10.532,2.028
		c0.562,1.06,7.649,3.567,13.288,4.032c2.882,0.236,14.043-0.808,42.455-2.084c43.661-1.966,101.634-3.718,187.927-2.961
		c114.745,1.011,126.04,2.299,159.567,3.817c20.901,0.944,38.701,1.854,53.492,2.677C538.729,73.789,540.732,73.859,540.986,73.867"
		/>
	<path fill="#939598" d="M100.084,32.43l-0.928-0.704c-2.872-2.184-3.4-3.243-3.4-4.531c0-1.883,1.42-3.094,3.615-3.094
		c1.952,0,2.851,0.86,3.364,1.51c0.655,0.813,0.788,1.774,0.788,1.982c0,0.833,0.436,0.959,0.69,0.959
		c0.719,0,0.719-0.883,0.719-1.357c0-1.844,0.064-2.849,0.107-3.45c0.014-0.254,0.027-0.435,0.027-0.565
		c0-0.581-0.559-0.705-0.729-0.746c-1.003-0.27-2.424-0.581-4.53-0.581c-4.745,0-8.06,2.746-8.06,6.678
		c0,2.968,1.514,5.42,5.072,8.208l1.536,1.206c2.61,2.05,3.132,3.459,3.132,5.073c0,1.676-1.441,3.46-4.116,3.46
		c-1.307,0-3.628-0.409-4.433-3.127c-0.168-0.572-0.285-1.234-0.285-1.605c0-0.804-0.431-0.922-0.685-0.922
		c-0.674,0-0.736,0.9-0.753,1.2l-0.009,0.107c-0.04,0.63-0.16,2.553-0.16,4.3c0,0.803,0.124,1.146,0.845,1.461
		c1.422,0.631,2.92,0.9,5.014,0.9c2.201,0,3.998-0.47,5.497-1.433c2.869-1.873,3.298-4.638,3.298-6.115
		C105.7,37.905,104.178,35.514,100.084,32.43"/>
	<path fill="#939598" d="M132.459,27.45l0.034-0.062c0.086-0.176,0.171-0.339,0.171-0.629c0-0.296-0.263-0.59-0.854-0.59h-9.044
		h-0.708c-0.279,0.003-0.58,0.006-0.911,0.006c-0.824,0-1.992-0.012-3.768-0.07c-0.404-0.021-0.611-0.083-0.776-0.131
		c-0.131-0.039-0.253-0.075-0.41-0.075c-0.187,0-0.615,0.083-0.684,0.841c-0.173,0.892-0.605,3.467-0.605,4.167
		c0,0.74,0.457,0.819,0.656,0.819c0.383,0,0.625-0.267,0.716-0.819c0.061-0.595,0.555-1.438,1.386-1.898
		c0.855-0.456,2.6-0.456,4.004-0.456h4.873c-3.448,5.129-7.474,11.174-11.977,17.98c-0.359,0.543-0.427,0.774-0.427,1.033
		c0,0.155,0.064,0.655,0.853,0.655c3.115,0,5.934,0.037,8.668,0.071c2.475,0.032,4.811,0.063,7.151,0.063
		c0.807,0,1.071-0.467,1.241-0.992c0.196-0.694,0.584-2.584,0.584-3.575c0-0.491,0-1.228-0.657-1.228
		c-0.516,0-0.627,0.504-0.676,0.736c-0.087,0.348-0.268,0.782-0.499,1.215c-0.368,0.641-1.161,1.296-4.23,1.296h-6.366
		c3.253-4.716,7.911-11.534,12.236-18.325C132.445,27.472,132.452,27.464,132.459,27.45"/>
	<path fill="#939598" d="M155.769,43.128c-0.522,0-0.629,0.482-0.683,0.732c-0.185,1.088-0.466,1.57-1.059,1.842
		c-0.777,0.341-2.173,0.341-2.63,0.341c-3.084,0-3.564-0.461-3.619-2.039c-0.021-0.581-0.012-1.946-0.002-3.041
		c0.001-0.459,0.002-0.875,0.002-1.161v-2.218c1,0.007,3.899,0.068,4.387,0.133c1.008,0.091,1.215,0.475,1.325,0.832
		c0.035,0.208,0.05,0.423,0.064,0.629c0.006,0.118,0.016,0.239,0.029,0.348c0.008,0.339,0.256,0.565,0.618,0.565
		c0.196,0,0.654-0.096,0.654-0.991c0-0.191,0.067-1.316,0.134-1.863c0.058-0.504,0.103-0.881,0.137-1.179
		c0.071-0.588,0.098-0.807,0.098-0.935c0-0.369-0.26-0.658-0.591-0.658c-0.236,0-0.385,0.153-0.522,0.289
		c-0.047,0.048-0.105,0.105-0.173,0.163c-0.013,0.012-0.026,0.024-0.036,0.034c-0.169,0.194-0.496,0.255-1.175,0.318
		c-0.399,0.041-2.202,0.064-4.949,0.065v-6.882c0.902,0.008,3.963,0.067,4.423,0.131c1.314,0.117,1.464,0.434,1.651,0.84
		c0.126,0.259,0.163,0.688,0.163,0.878c0,0.599,0.322,0.724,0.587,0.724c0.497,0,0.628-0.536,0.669-0.714
		c0-0.003,0.008-0.038,0.008-0.039c0.046-0.223,0.086-0.722,0.134-1.351c0.014-0.241,0.03-0.453,0.046-0.572
		c0.045-0.875,0.129-1.29,0.181-1.533c0.031-0.134,0.054-0.229,0.054-0.326c0-0.461-0.301-0.622-0.559-0.622
		c-0.137,0-0.264,0.048-0.374,0.087c-0.054,0.021-0.107,0.043-0.142,0.051c-0.061,0.009-0.138,0.021-0.23,0.037
		c-0.249,0.043-0.595,0.104-0.975,0.127c-0.109,0.007-0.567,0.015-2.101,0.015c-1.41,0-3.215-0.006-4.473-0.013
		c-0.678-0.002-1.199-0.002-1.415-0.002c-0.353,0-0.889-0.01-1.506-0.025c-0.868-0.021-1.842-0.04-2.73-0.04
		c-0.253,0-1.024,0-1.024,0.621c0,0.303,0.222,0.655,0.856,0.655c0.443,0,0.896,0.035,1.071,0.086
		c0.802,0.23,0.956,0.413,1.011,1.21c0.032,0.896,0.032,1.678,0.032,6.01v5.017c0,2.595,0,4.834-0.129,6.016
		c-0.115,0.928-0.287,1.131-0.604,1.202c-0.239,0.059-0.551,0.091-0.946,0.091c-0.567,0-0.823,0.329-0.823,0.654
		c0,0.153,0.064,0.656,0.922,0.656c0.586,0,1.278-0.03,2.039-0.066c0.414,0,0.812-0.01,1.131-0.021
		c0.216-0.009,0.401-0.013,0.533-0.013c0.66,0,1.446,0.017,2.438,0.045l0.949,0.022c1.456,0.065,3.229,0.098,5.422,0.098
		c1.127,0,1.638,0,1.908-0.991c0.175-0.593,0.414-2.58,0.414-3.244C156.389,43.473,156.18,43.128,155.769,43.128"/>
	<path fill="#939598" d="M187.17,47.012c-0.224,0-0.361,0-0.629-0.057l-0.083-0.024c-0.458-0.093-1.406-0.285-2.873-1.756
		c-1.665-1.669-3.59-4.044-6.019-7.05l-0.173-0.21c2.748-2.271,3.926-4.179,3.926-6.341c0-2.124-1.397-3.643-2.228-4.211
		c-1.69-1.117-3.972-1.26-5.768-1.26c-0.44,0-1.3,0.015-2.182,0.031c-0.925,0.018-1.877,0.034-2.389,0.034
		c-0.231,0-0.644-0.008-1.157-0.019c-0.846-0.022-1.899-0.047-2.848-0.047c-0.251,0-1.022,0-1.022,0.62
		c0,0.305,0.227,0.658,0.854,0.658c0.446,0,0.898,0.033,1.071,0.084c0.808,0.231,0.96,0.413,1.012,1.212
		c0.034,0.895,0.034,1.677,0.034,6.009v5.015c0,2.597,0,4.837-0.13,6.017c-0.112,0.928-0.288,1.133-0.605,1.202
		c-0.234,0.06-0.548,0.092-0.947,0.092c-0.566,0-0.821,0.33-0.821,0.654c0,0.153,0.068,0.655,0.92,0.655
		c0.694,0,1.642-0.031,2.401-0.063c0.526-0.021,0.974-0.035,1.206-0.035c0.143,0,0.507,0.009,0.999,0.021
		c0.966,0.037,2.438,0.077,3.572,0.077c0.884,0,0.955-0.502,0.955-0.655c0-0.316-0.276-0.654-0.722-0.654
		c-0.366,0-0.976-0.034-1.383-0.098c-0.619-0.093-0.732-0.339-0.836-1.192c-0.142-1.317-0.164-3.909-0.164-6.021v-0.273l2.517,0.064
		c0.147,0,0.209,0.017,0.263,0.075c0.153,0.179,0.499,0.68,0.901,1.26c0.536,0.777,1.202,1.74,1.855,2.599
		c1.768,2.394,2.839,3.643,4.124,4.284c0.86,0.454,1.742,0.611,3.368,0.611h2.803c0.759,0,0.918-0.357,0.918-0.655
		C187.89,47.35,187.616,47.012,187.17,47.012 M176.909,32.979c0,2.225-0.956,3.362-1.757,3.93c-0.418,0.305-0.729,0.398-1.861,0.398
		c-0.496,0-1.414-0.034-2.101-0.238c-0.024-0.016-0.036-0.024-0.036-0.022c0-0.008-0.013-0.046-0.013-0.15v-8.465
		c0-0.026,0.001-0.046,0.001-0.06h0.008c0.262-0.056,0.901-0.09,1.638-0.09C173.479,28.281,176.909,28.51,176.909,32.979"/>
	<path fill="#939598" d="M207.228,43.128c-0.522,0-0.63,0.482-0.686,0.732c-0.182,1.088-0.463,1.57-1.055,1.842
		c-0.781,0.341-2.172,0.341-2.629,0.341c-3.085,0-3.563-0.461-3.618-2.039c-0.023-0.581-0.014-1.946-0.008-3.041
		c0.002-0.459,0.008-0.875,0.008-1.161v-2.218c0.995,0.007,3.897,0.068,4.385,0.133c1.006,0.091,1.213,0.475,1.321,0.832
		c0.039,0.208,0.051,0.423,0.066,0.629c0.008,0.118,0.015,0.239,0.028,0.348c0.009,0.339,0.256,0.565,0.622,0.565
		c0.192,0,0.651-0.096,0.651-0.991c0-0.191,0.067-1.316,0.13-1.863c0.059-0.504,0.107-0.881,0.141-1.179
		c0.071-0.588,0.093-0.807,0.093-0.935c0-0.369-0.253-0.658-0.585-0.658c-0.237,0-0.388,0.153-0.523,0.289
		c-0.048,0.048-0.103,0.105-0.171,0.163c-0.013,0.012-0.027,0.024-0.037,0.034c-0.17,0.194-0.5,0.255-1.174,0.318
		c-0.403,0.041-2.206,0.064-4.947,0.065v-6.882c0.897,0.008,3.962,0.067,4.417,0.131c1.314,0.117,1.464,0.434,1.653,0.84
		c0.128,0.259,0.162,0.688,0.162,0.878c0,0.599,0.318,0.724,0.589,0.724c0.498,0,0.626-0.536,0.667-0.714
		c0-0.003,0.012-0.038,0.012-0.039c0.045-0.223,0.083-0.722,0.128-1.351c0.018-0.241,0.034-0.453,0.048-0.572
		c0.041-0.875,0.128-1.29,0.184-1.533c0.029-0.134,0.047-0.229,0.047-0.326c0-0.461-0.298-0.622-0.552-0.622
		c-0.141,0-0.266,0.048-0.378,0.087c-0.054,0.021-0.108,0.043-0.142,0.051c-0.063,0.009-0.137,0.021-0.229,0.037
		c-0.249,0.043-0.597,0.104-0.973,0.127c-0.109,0.007-0.567,0.015-2.103,0.015c-1.407,0-3.212-0.006-4.475-0.013
		c-0.676-0.002-1.195-0.002-1.414-0.002c-0.351,0-0.889-0.01-1.507-0.025c-0.861-0.021-1.843-0.04-2.729-0.04
		c-0.25,0-1.021,0-1.021,0.621c0,0.303,0.223,0.655,0.855,0.655c0.444,0,0.898,0.035,1.071,0.086c0.806,0.23,0.955,0.413,1.013,1.21
		c0.031,0.896,0.031,1.678,0.031,6.01v5.017c0,2.595,0,4.834-0.133,6.016c-0.109,0.928-0.289,1.131-0.599,1.202
		c-0.239,0.059-0.552,0.091-0.951,0.091c-0.563,0-0.818,0.329-0.818,0.654c0,0.153,0.066,0.656,0.918,0.656
		c0.589,0,1.279-0.03,2.038-0.066c0.419,0,0.813-0.01,1.134-0.021c0.216-0.009,0.399-0.013,0.532-0.013
		c0.662,0,1.446,0.017,2.437,0.045l0.951,0.022c1.458,0.065,3.231,0.098,5.423,0.098c1.127,0,1.637,0,1.908-0.991
		c0.173-0.593,0.414-2.58,0.414-3.244C207.848,43.473,207.64,43.128,207.228,43.128"/>
	<path fill="#939598" d="M240.07,26.104c-0.975,0-1.788,0.027-2.328,0.048c-0.25,0.009-0.432,0.017-0.541,0.017
		c-0.244,0-0.634-0.008-1.105-0.019c-0.756-0.022-1.696-0.046-2.631-0.046c-0.353,0-1.088,0-1.088,0.62
		c0,0.152,0.056,0.657,0.818,0.657c0.36,0,1.036,0,1.41,0.143c0.459,0.175,0.738,0.408,0.777,2.182l0.28,11.909
		c-0.408-0.413-1.024-1.037-1.693-1.717c-1.357-1.378-3.053-3.1-4.162-4.193c-3.599-3.525-7.35-7.347-8.585-8.603
		c-0.243-0.244-0.399-0.403-0.451-0.461l-0.12-0.118c-0.511-0.514-0.919-0.926-1.402-0.926c-0.51,0-0.854,0.534-0.854,1.322
		l-0.269,16.861c-0.035,2.426-0.146,2.98-0.63,3.104c-0.31,0.082-0.777,0.127-1.248,0.127c-0.47,0-0.826,0.279-0.826,0.654
		c0,0.655,0.718,0.655,1.024,0.655c1.066,0,2.075-0.047,2.679-0.079c0.24-0.01,0.416-0.019,0.491-0.019
		c0.183,0,0.46,0.012,0.827,0.026c0.688,0.031,1.727,0.071,2.981,0.071c0.675,0,1.017-0.222,1.017-0.655
		c0-0.325-0.264-0.654-0.852-0.654c-0.593,0-1.056-0.061-1.419-0.183c-0.321-0.113-0.7-0.527-0.769-2.757l-0.308-10.818
		c0.258,0.271,0.589,0.616,0.961,1.008c1.33,1.402,3.338,3.525,5.391,5.494c3.229,3.133,6.838,6.585,8.572,8.193
		c0.472,0.477,0.951,0.71,1.452,0.71c0.379,0,0.826-0.334,0.826-1.255l0.329-17.93c0.03-1.612,0.272-1.853,0.809-2.006
		c0.319-0.087,0.512-0.087,0.804-0.087c0.589,0,0.852-0.333,0.852-0.657C241.089,26.104,240.378,26.104,240.07,26.104"/>
	<path fill="#939598" d="M266.792,42.224c-0.546,0-0.623,0.545-0.667,0.859c-0.073,0.431-0.399,1.181-0.854,1.736
		c-0.993,1.188-2.225,1.388-4.612,1.388c-3.404,0-7.847-2.981-7.847-9.615c0-3.339,0.41-5.604,2.051-7.12
		c1.181-1.085,2.621-1.521,4.959-1.521c2.25,0,4.096,0.571,5.057,1.566c0.571,0.613,0.931,1.514,0.961,2.394
		c0,0.791,0.33,0.958,0.61,0.958c0.286,0,0.639-0.182,0.705-1.04c0.012-0.23,0.02-0.628,0.028-1.085
		c0.014-0.67,0.028-1.438,0.063-1.989c0.038-0.554,0.071-0.898,0.094-1.138c0.019-0.201,0.032-0.336,0.032-0.456
		c0-0.188-0.065-0.623-0.697-0.687c-0.471-0.058-0.987-0.156-1.533-0.255c-0.378-0.069-0.781-0.142-1.203-0.216
		c-1.214-0.164-2.259-0.305-4.029-0.305c-3.825,0-6.653,0.989-8.905,3.104c-3.078,2.955-3.317,6.914-3.317,8.059
		c0,3.631,1.193,6.549,3.543,8.671c2.36,2.125,5.508,3.157,9.615,3.157c1.066,0,3.684-0.063,5.075-0.658
		c0.569-0.246,0.765-0.477,0.909-1.063c0.289-1.007,0.606-3.52,0.606-3.888C267.436,42.673,267.189,42.224,266.792,42.224"/>
	<path fill="#939598" d="M284.475,34.641l-1.201-0.666c-2.7-1.505-2.92-2.451-2.92-3.436c0-1.765,1.834-2.688,3.648-2.688
		c1.666,0,2.549,0.654,3.001,1.214c0.559,0.643,0.684,1.42,0.684,1.642c0,0.794,0.5,0.856,0.653,0.856
		c0.329,0,0.719-0.218,0.719-1.262c0-1.581,0.052-2.432,0.081-2.937c0.011-0.211,0.021-0.361,0.021-0.473
		c0-0.362-0.229-0.599-0.665-0.712c-0.436-0.112-2.01-0.48-4.261-0.48c-4.499,0-7.762,2.554-7.762,6.073
		c0,2.81,1.383,4.765,4.776,6.768l1.707,1.003c2.517,1.487,2.725,2.602,2.725,3.706c0,1.917-1.525,3.256-3.715,3.256
		c-0.837,0-3.621-0.182-4.336-2.564c-0.163-0.491-0.251-1.054-0.251-1.36c0-0.76-0.499-0.822-0.653-0.822
		c-0.347,0-0.722,0.289-0.722,1.068l-0.002,0.077c-0.043,0.56-0.165,2.252-0.165,3.727c0,0.753,0.167,1.034,0.778,1.294
		c1.136,0.51,2.788,0.765,4.915,0.765c1.452,0,3.562-0.125,5.111-1.236c2.104-1.483,3.086-3.263,3.086-5.606
		C289.729,38.874,288.108,36.65,284.475,34.641"/>
	<path fill="#939598" d="M312.997,43.128c-0.519,0-0.627,0.482-0.677,0.732c-0.187,1.088-0.468,1.57-1.063,1.842
		c-0.776,0.341-2.168,0.341-2.626,0.341c-3.085,0-3.569-0.461-3.619-2.039c-0.024-0.581-0.011-1.946-0.006-3.041
		c0.001-0.459,0.006-0.875,0.006-1.161v-2.218c0.996,0.007,3.899,0.068,4.385,0.133c1.01,0.091,1.214,0.475,1.321,0.832
		c0.036,0.208,0.052,0.423,0.064,0.629c0.014,0.118,0.018,0.239,0.028,0.348c0.011,0.339,0.258,0.565,0.62,0.565
		c0.2,0,0.652-0.096,0.652-0.991c0-0.191,0.072-1.316,0.135-1.863c0.057-0.504,0.106-0.881,0.143-1.179
		c0.065-0.588,0.092-0.807,0.092-0.935c0-0.369-0.26-0.658-0.584-0.658c-0.237,0-0.392,0.153-0.528,0.289
		c-0.044,0.048-0.101,0.105-0.172,0.163c-0.012,0.012-0.021,0.024-0.031,0.034c-0.175,0.194-0.501,0.255-1.175,0.318
		c-0.408,0.041-2.206,0.064-4.95,0.065v-6.882c0.898,0.008,3.96,0.067,4.419,0.131c1.313,0.117,1.463,0.434,1.649,0.84
		c0.131,0.259,0.168,0.688,0.168,0.878c0,0.599,0.317,0.724,0.589,0.724c0.494,0,0.623-0.536,0.667-0.714
		c0-0.003,0.004-0.038,0.007-0.039c0.051-0.223,0.084-0.722,0.127-1.351c0.021-0.241,0.039-0.453,0.047-0.572
		c0.049-0.875,0.137-1.29,0.188-1.533c0.029-0.134,0.046-0.229,0.046-0.326c0-0.461-0.298-0.622-0.55-0.622
		c-0.144,0-0.269,0.048-0.379,0.087c-0.056,0.021-0.106,0.043-0.14,0.051c-0.061,0.009-0.141,0.021-0.229,0.037
		c-0.253,0.043-0.599,0.104-0.979,0.127c-0.109,0.007-0.567,0.015-2.1,0.015c-1.41,0-3.213-0.006-4.475-0.013
		c-0.676-0.002-1.193-0.002-1.414-0.002c-0.347,0-0.89-0.01-1.505-0.025c-0.868-0.021-1.844-0.04-2.731-0.04
		c-0.254,0-1.023,0-1.023,0.621c0,0.303,0.228,0.655,0.856,0.655c0.446,0,0.896,0.035,1.069,0.086
		c0.808,0.23,0.958,0.413,1.012,1.21c0.035,0.896,0.035,1.678,0.035,6.01v5.017c0,2.595,0,4.834-0.133,6.016
		c-0.111,0.928-0.282,1.131-0.599,1.202c-0.243,0.059-0.553,0.091-0.952,0.091c-0.565,0-0.819,0.329-0.819,0.654
		c0,0.153,0.068,0.656,0.92,0.656c0.592,0,1.276-0.03,2.035-0.066c0.419,0,0.813-0.01,1.136-0.021
		c0.22-0.009,0.403-0.013,0.535-0.013c0.657,0,1.443,0.017,2.436,0.045l0.95,0.022c1.455,0.065,3.23,0.098,5.42,0.098
		c1.13,0,1.644,0,1.909-0.991c0.176-0.593,0.415-2.58,0.415-3.244C313.62,43.473,313.41,43.128,312.997,43.128"/>
	<path fill="#939598" d="M330.148,26.104c-0.657,0-1.536,0.017-2.309,0.039c-0.594,0.013-1.127,0.025-1.426,0.025
		c-0.315,0-0.86-0.009-1.504-0.025c-0.908-0.016-2.033-0.039-2.933-0.039c-0.254,0-1.017,0-1.017,0.62
		c0,0.304,0.215,0.657,0.851,0.657c0.445,0,0.893,0.033,1.065,0.083c0.812,0.233,0.963,0.413,1.018,1.213
		c0.029,0.896,0.029,1.678,0.029,6.009v8.405c0.005,5.35,0.005,8.037-2.096,10.076c-0.52,0.522-0.932,0.85-1.304,1.035
		c-0.438,0.204-0.837,0.425-0.837,0.821c0,0.344,0.267,0.624,0.586,0.624c0.196,0,0.506-0.046,0.752-0.168
		c0.644-0.308,1.12-0.541,1.501-0.749c2.736-1.614,4.714-3.659,5.425-5.603c0.639-1.714,0.722-3.646,0.722-5.141
		c0-0.76-0.023-1.491-0.057-2.199c-0.021-0.644-0.046-1.252-0.046-1.817v-5.285c0-4.325,0-5.105,0.068-5.995
		c0.06-0.941,0.247-1.122,0.82-1.221c0.314-0.063,0.486-0.089,0.767-0.089c0.798,0,0.88-0.46,0.88-0.657
		C331.105,26.312,330.794,26.104,330.148,26.104"/>
	<path fill="#939598" d="M345.437,24.2c0.134,0,0.259-0.064,0.524-0.199l0.208-0.11c1.192-0.646,3.787-1.704,5.57-1.93
		c0.395-0.043,0.734-0.027,0.923-0.012c0.068,0.005,0.132,0.015,0.178,0.015c0.233,0,0.421-0.104,0.524-0.271
		c0.128-0.199,0.113-0.451-0.032-0.731c-0.443-1.005-0.729-1.599-0.975-2.036c-0.17-0.302-0.331-0.582-0.784-0.582
		c-0.219,0-0.537,0.131-0.852,0.355c-0.514,0.319-4.04,2.938-5.439,4.262c-0.208,0.209-0.396,0.405-0.396,0.688
		C344.886,23.979,345.168,24.2,345.437,24.2"/>
	<path fill="#939598" d="M359.217,47.012c-0.29,0-0.613-0.032-1.032-0.094c-0.302-0.059-1.087-0.207-2.247-2.839
		c-0.959-2.211-2.729-6.39-4.295-10.071c-1.526-3.593-2.84-6.691-3.186-7.47c-0.299-0.644-0.52-1.104-1.183-1.104
		c-0.581,0-0.898,0.643-1.196,1.349l-7.673,17.9c-0.616,1.473-1.053,2.123-2.144,2.294c-0.133,0-0.271,0.009-0.426,0.02
		c-0.139,0.005-0.285,0.015-0.412,0.015c-0.402,0-0.688,0.269-0.688,0.655c0,0.432,0.305,0.654,0.891,0.654
		c1.068,0,2.172-0.046,2.825-0.075c0.277-0.013,0.485-0.022,0.575-0.022c0.454,0,1.033,0.022,1.595,0.047
		c0.587,0.027,1.182,0.051,1.682,0.051c0.712,0,0.822-0.411,0.822-0.654c0-0.198-0.085-0.655-0.796-0.655h-0.431
		c-0.815,0-0.815-0.24-0.815-0.451c0-0.251,0.113-0.909,0.407-1.601l1.564-3.798l6.833,0.003l2.263,5.7
		c0.037,0.096,0.006,0.142-0.007,0.152c-0.542,0.07-0.657,0.391-0.657,0.649c0,0.516,0.542,0.549,1.066,0.579l0.147,0.009
		c2.476,0.066,4.618,0.066,5.65,0.066c0.942,0,1.624,0,1.624-0.654C359.975,47.35,359.771,47.012,359.217,47.012 M348.956,38.88
		h-5.013l2.542-6.447L348.956,38.88z"/>
	<path fill="#939598" d="M381.142,25.898c-0.081,0-0.166,0.018-0.308,0.047c-0.128,0.024-0.303,0.062-0.55,0.09
		c-0.563,0.092-1.203,0.135-1.94,0.135h-11.923c-0.804,0-1.949-0.023-2.884-0.135c-0.393-0.051-0.641-0.146-0.843-0.22
		c-0.164-0.061-0.315-0.117-0.471-0.117c-0.532,0-0.646,0.623-0.675,0.794c-0.055,0.194-0.652,3.006-0.652,3.545
		c0,0.743,0.436,0.819,0.633,0.819c0.489,0,0.612-0.437,0.659-0.605c0.045-0.135,0.164-0.491,0.458-0.887
		c0.302-0.448,0.779-0.678,2.556-0.716l4.006-0.088v11.142c0,2.596,0,4.835-0.13,6.015c-0.115,0.93-0.289,1.134-0.613,1.207
		c-0.114,0.033-0.387,0.088-0.94,0.088c-0.571,0-0.821,0.329-0.821,0.655c0,0.153,0.072,0.653,0.924,0.653
		c0.675,0,1.604-0.03,2.42-0.058c0.608-0.022,1.137-0.039,1.418-0.039c0.325,0,0.832,0.013,1.439,0.032
		c0.945,0.031,2.126,0.064,3.297,0.064c0.682,0,0.923-0.336,0.923-0.653c0-0.326-0.281-0.655-0.823-0.655
		c-0.417,0-1.077-0.034-1.441-0.097c-0.607-0.094-0.743-0.372-0.838-1.16c-0.148-1.353-0.166-3.943-0.166-6.053V28.559l3.343,0.06
		c1.883,0.022,3.048,0.515,3.117,1.324l0.042,0.287c0.021,0.311,0.067,0.897,0.682,0.897c0.355,0,0.562-0.266,0.619-0.782v-0.043
		c0-0.384,0.019-1.146,0.04-1.867c0.019-0.662,0.033-1.289,0.033-1.578C381.731,26.523,381.731,25.898,381.142,25.898"/>
	<path fill="#939598" d="M404.069,43.128c-0.522,0-0.628,0.482-0.682,0.732c-0.191,1.088-0.465,1.57-1.06,1.842
		c-0.775,0.341-2.173,0.341-2.632,0.341c-3.079,0-3.56-0.461-3.618-2.039c-0.021-0.581-0.013-1.946-0.002-3.041
		c0-0.459,0.002-0.875,0.002-1.161v-2.218c0.998,0.007,3.896,0.068,4.381,0.133c1.011,0.091,1.22,0.475,1.325,0.832
		c0.039,0.21,0.051,0.425,0.065,0.631c0.005,0.12,0.017,0.239,0.027,0.346c0.012,0.339,0.258,0.565,0.625,0.565
		c0.193,0,0.652-0.096,0.652-0.991c0-0.188,0.059-1.313,0.131-1.863c0.06-0.488,0.103-0.857,0.138-1.149
		c0.071-0.607,0.096-0.834,0.096-0.964c0-0.369-0.253-0.658-0.585-0.658c-0.238,0-0.387,0.153-0.523,0.289
		c-0.044,0.048-0.107,0.105-0.175,0.163c-0.01,0.012-0.024,0.024-0.033,0.034c-0.17,0.194-0.504,0.255-1.17,0.318
		c-0.41,0.041-2.206,0.064-4.954,0.065l0.004-6.882c0.893,0.008,3.96,0.067,4.416,0.131c1.314,0.117,1.457,0.434,1.647,0.84
		c0.131,0.259,0.166,0.688,0.166,0.878c0,0.599,0.32,0.724,0.589,0.724c0.495,0,0.625-0.538,0.675-0.714
		c0-0.006,0.01-0.038,0.01-0.039c0.045-0.227,0.079-0.722,0.125-1.355c0.017-0.24,0.031-0.448,0.043-0.567
		c0.051-0.87,0.136-1.29,0.183-1.533c0.029-0.134,0.046-0.229,0.046-0.326c0-0.461-0.289-0.622-0.548-0.622
		c-0.143,0-0.266,0.048-0.373,0.087c-0.06,0.021-0.108,0.043-0.144,0.051c-0.059,0.009-0.136,0.021-0.23,0.037
		c-0.25,0.043-0.593,0.104-0.975,0.127c-0.114,0.007-0.566,0.015-2.1,0.015c-1.409,0-3.219-0.006-4.476-0.013
		c-0.674-0.002-1.198-0.002-1.411-0.002c-0.352,0-0.89-0.01-1.511-0.025c-0.864-0.021-1.839-0.04-2.729-0.04
		c-0.253,0-1.022,0-1.022,0.621c0,0.303,0.226,0.655,0.859,0.655c0.442,0,0.895,0.035,1.066,0.086c0.805,0.23,0.96,0.413,1.014,1.21
		c0.035,0.896,0.035,1.678,0.035,6.01v5.017c0,2.595,0,4.834-0.133,6.016c-0.115,0.928-0.289,1.131-0.603,1.202
		c-0.239,0.059-0.555,0.091-0.949,0.091c-0.566,0-0.82,0.329-0.82,0.654c0,0.153,0.063,0.656,0.919,0.656
		c0.592,0,1.28-0.03,2.036-0.066c0.413,0,0.818-0.01,1.137-0.021c0.216-0.009,0.398-0.013,0.533-0.013
		c0.657,0,1.445,0.017,2.439,0.045l0.947,0.022c1.457,0.065,3.232,0.098,5.422,0.098c1.128,0,1.634,0,1.906-0.991
		c0.172-0.593,0.413-2.58,0.413-3.244C404.686,43.473,404.484,43.128,404.069,43.128"/>
	<path fill="#939598" d="M394.559,24.2c0.133,0,0.255-0.06,0.529-0.199l0.206-0.11c1.188-0.646,3.783-1.704,5.579-1.93
		c0.382-0.043,0.72-0.027,0.906-0.012c0.071,0.005,0.133,0.015,0.183,0.015c0.227,0,0.423-0.104,0.528-0.271
		c0.117-0.199,0.106-0.451-0.035-0.731c-0.437-0.986-0.73-1.596-0.984-2.036c-0.166-0.302-0.322-0.582-0.775-0.582
		c-0.223,0-0.537,0.131-0.849,0.355c-0.52,0.319-4.052,2.943-5.44,4.262c-0.21,0.209-0.398,0.405-0.398,0.688
		C394.008,23.979,394.289,24.2,394.559,24.2"/>
	<path fill="#939598" d="M435.872,47.012c-0.323,0-0.858,0-1.676-0.343c-1.223-0.497-2.179-1.39-3.194-2.334
		c-0.23-0.217-0.468-0.433-0.691-0.644c-1.141-1.068-6.341-6.493-7.72-8.155c1.22-1.315,5.193-5.075,5.98-5.813
		c1.141-1.084,2.038-1.691,2.986-2.028c0.522-0.199,1.207-0.312,1.573-0.312c0.587,0,0.792-0.355,0.792-0.658
		c0-0.188-0.086-0.62-0.857-0.62c-0.448,0-1.082,0.015-1.724,0.033c-0.636,0.016-1.261,0.032-1.708,0.032
		c-0.424,0-1.063-0.017-1.676-0.038c-0.549-0.013-1.066-0.027-1.364-0.027c-0.735,0-0.818,0.432-0.818,0.62
		c0,0.477,0.468,0.597,0.664,0.646c0.06,0.015,0.133,0.031,0.133,0.224c0,0.328-0.58,0.98-1.195,1.668l-0.183,0.2
		c-0.472,0.532-1.979,2.041-3.428,3.504c-0.854,0.857-1.677,1.685-2.231,2.249v-0.528c0-4.331,0-5.113,0.032-5.996
		c0.071-0.94,0.251-1.121,0.815-1.216l0.044-0.009c0.331-0.062,0.472-0.083,0.73-0.083c0.442,0,0.746-0.272,0.746-0.658
		c0-0.62-0.738-0.62-0.985-0.62c-0.525,0-1.393,0.017-2.165,0.035c-0.665,0.015-1.283,0.03-1.604,0.03
		c-0.274,0-0.746-0.012-1.307-0.022c-0.842-0.021-1.879-0.043-2.797-0.043c-0.25,0-1.019,0-1.019,0.62
		c0,0.303,0.221,0.658,0.856,0.658c0.441,0,0.892,0.033,1.068,0.083c0.801,0.23,0.962,0.413,1.014,1.21
		c0.03,0.897,0.03,1.68,0.03,6.011v5.016c0,2.597,0,4.835-0.133,6.016c-0.11,0.929-0.285,1.134-0.604,1.202
		c-0.236,0.061-0.547,0.092-0.945,0.092c-0.564,0-0.821,0.328-0.821,0.654c0,0.154,0.065,0.655,0.923,0.655
		c0.664,0,1.553-0.031,2.337-0.061c0.579-0.021,1.084-0.038,1.361-0.038c0.297,0,0.804,0.015,1.42,0.033
		c0.921,0.032,2.071,0.065,3.058,0.065c0.684,0,0.919-0.338,0.919-0.655c0-0.355-0.345-0.654-0.752-0.654
		c-0.395,0-1.028-0.037-1.375-0.095c-0.416-0.079-0.707-0.302-0.771-1.143c-0.077-1.228-0.077-3.473-0.077-6.072v-1.7
		c1.2,1.499,6.152,7.247,7.392,8.326c1.311,1.14,2.332,1.781,3.996,1.924c0.657,0.069,1.192,0.069,2.075,0.069h2.569
		c0.264,0,1.06,0,1.06-0.655C436.627,47.297,436.293,47.012,435.872,47.012"/>
	<path fill="#939598" d="M475.217,41.693c-0.52,0-0.63,0.53-0.679,0.817c-0.114,0.512-0.315,1.059-0.568,1.509
		c-0.595,1.111-2.208,1.654-4.929,1.654h-7.553l1.687-2.582c4.128-6.295,8.396-12.807,12.352-19.235l0.046-0.086
		c0.128-0.224,0.263-0.456,0.263-0.725c0-0.288-0.238-0.627-0.92-0.627h-10.179l-1.502,0.008c-1.011,0-2.45-0.015-4.623-0.106
		c-0.466-0.02-0.702-0.092-0.899-0.148c-0.143-0.041-0.276-0.086-0.455-0.086c-0.402,0-0.655,0.317-0.736,0.936
		c-0.318,1.836-0.677,4.176-0.677,4.872c0,0.301,0,0.927,0.614,0.927c0.621,0,0.722-0.684,0.755-0.914
		c0.078-0.603,0.587-1.779,1.625-2.349c1.164-0.654,3.775-0.654,4.633-0.654h5.893c-2.496,3.936-5.179,8.096-7.775,12.121
		c-2.003,3.104-4.019,6.228-5.988,9.308c-0.397,0.598-0.557,0.841-0.557,1.202c0,0.204,0.091,0.688,0.918,0.688
		c3.527,0,6.718,0.044,9.815,0.088c2.8,0.039,5.448,0.076,8.102,0.076c0.903,0,1.187-0.543,1.345-1.131
		c0.232-0.821,0.68-3.045,0.68-4.175C475.902,42.463,475.902,41.693,475.217,41.693"/>
	<path fill="#939598" d="M507.051,47.012c-0.227,0-0.362,0-0.627-0.057l-0.09-0.024c-0.459-0.093-1.407-0.285-2.87-1.756
		c-1.668-1.671-3.593-4.05-6.029-7.06l-0.162-0.2c2.744-2.271,3.923-4.179,3.923-6.341c0-2.124-1.395-3.643-2.227-4.211
		c-1.692-1.117-3.973-1.26-5.769-1.26c-0.438,0-1.298,0.015-2.181,0.031c-0.924,0.018-1.876,0.034-2.39,0.034
		c-0.229,0-0.644-0.008-1.157-0.019c-0.845-0.022-1.899-0.047-2.844-0.047c-0.256,0-1.021,0-1.021,0.62
		c0,0.305,0.222,0.658,0.854,0.658c0.445,0,0.89,0.033,1.064,0.084c0.807,0.231,0.959,0.413,1.016,1.212
		c0.032,0.895,0.032,1.677,0.032,6.009v5.015c0,2.597,0,4.837-0.134,6.017c-0.107,0.928-0.281,1.133-0.601,1.202
		c-0.244,0.06-0.551,0.092-0.943,0.092c-0.57,0-0.824,0.33-0.824,0.654c0,0.153,0.069,0.655,0.921,0.655
		c0.696,0,1.638-0.031,2.401-0.063c0.524-0.021,0.973-0.035,1.2-0.035c0.15,0,0.514,0.009,1.002,0.021
		c0.965,0.037,2.435,0.077,3.569,0.077c0.888,0,0.959-0.502,0.959-0.655c0-0.316-0.276-0.654-0.726-0.654
		c-0.36,0-0.969-0.034-1.38-0.098c-0.618-0.093-0.732-0.339-0.832-1.192c-0.154-1.314-0.167-3.908-0.167-6.021v-0.273l2.519,0.064
		c0.144,0,0.206,0.017,0.261,0.075c0.154,0.179,0.499,0.68,0.898,1.26c0.535,0.777,1.205,1.74,1.854,2.599
		c1.771,2.392,2.841,3.643,4.128,4.284c0.855,0.454,1.744,0.611,3.368,0.611h2.8c0.76,0,0.923-0.357,0.923-0.655
		C507.771,47.35,507.494,47.012,507.051,47.012 M496.783,32.979c0,2.225-0.952,3.362-1.758,3.93
		c-0.413,0.305-0.721,0.398-1.86,0.398c-0.488,0-1.409-0.034-2.096-0.238c-0.031-0.016-0.037-0.022-0.042-0.022
		c-0.003-0.008-0.008-0.046-0.008-0.15v-8.465v-0.06h0.005c0.27-0.056,0.902-0.09,1.642-0.09
		C493.355,28.281,496.783,28.51,496.783,32.979"/>
	<path fill="#939598" d="M529.039,25.898c-0.079,0-0.172,0.018-0.308,0.047c-0.128,0.024-0.303,0.062-0.551,0.09
		c-0.564,0.092-1.198,0.135-1.941,0.135h-11.915c-0.801,0-1.951-0.023-2.886-0.135c-0.391-0.051-0.645-0.146-0.843-0.22
		c-0.162-0.061-0.312-0.117-0.475-0.117c-0.53,0-0.644,0.623-0.675,0.794c-0.057,0.194-0.652,3.006-0.652,3.545
		c0,0.743,0.441,0.819,0.627,0.819c0.495,0,0.624-0.437,0.673-0.605c0.037-0.135,0.16-0.491,0.455-0.887
		c0.301-0.448,0.778-0.678,2.549-0.716l4.014-0.088v11.142c0,2.596,0,4.835-0.131,6.015c-0.116,0.93-0.288,1.134-0.616,1.207
		c-0.111,0.033-0.387,0.088-0.937,0.088c-0.57,0-0.826,0.329-0.826,0.655c0,0.153,0.068,0.653,0.927,0.653
		c0.668,0,1.6-0.03,2.419-0.058c0.605-0.022,1.136-0.039,1.419-0.039c0.324,0,0.836,0.013,1.438,0.032
		c0.948,0.031,2.122,0.064,3.3,0.064c0.676,0,0.917-0.336,0.917-0.653c0-0.326-0.279-0.655-0.821-0.655
		c-0.421,0-1.067-0.034-1.44-0.097c-0.61-0.094-0.744-0.372-0.841-1.16c-0.145-1.353-0.158-3.943-0.158-6.053V28.559l3.341,0.06
		c1.88,0.022,3.044,0.515,3.12,1.324l0.03,0.287c0.029,0.311,0.066,0.897,0.69,0.897c0.355,0,0.561-0.266,0.616-0.782
		c0.002-0.016,0.002-0.03,0.002-0.043c0-0.384,0.02-1.146,0.035-1.867c0.019-0.662,0.032-1.289,0.032-1.578
		C529.628,26.523,529.628,25.898,529.039,25.898"/>
	<path fill="#939598" d="M533.795,43.432c-1.65,0-2.391,1.396-2.391,2.394c0,1.191,0.81,2.397,2.355,2.397
		c1.402,0,2.425-1.054,2.425-2.5C536.185,44.395,535.177,43.432,533.795,43.432"/>
	<path fill="#8DC63F" d="M75.663,45.637L74.75,43.82c-3.633-6.017-0.463-11.707-0.463-11.707c2.623-4.929,1.942-7.543,0.89-9.551
		c-2.157-4.12-6.872-5.724-11.514-4.712c-0.582,0.126-1.081,0.273-1.469,0.408c-0.857,0.25-1.79,0.809-1.79,0.808
		c1.835-2.968,4.358-7.573,1.979-11.062c-0.691-1.012-2.258-2.436-3.678-2.987c-3.923-1.544-7.779-0.29-10.623,0.801
		c-0.403,0.153-1.964,0.868-2.361,1.013C42.6,8.09,40.402,7.518,37.45,6.325c-3.789-1.527-8.248-2.433-12.071-0.779
		c-3.254,1.337-5.634,4.856-4.979,8.813c0.225,1.727,1.803,4.522,3.072,6.167c-1.129-0.502-3.813-1.491-5.156-1.563
		c-4.378-0.464-8.143,1.647-10.035,5.107c0.028-0.057-0.061,0.104-0.055,0.093c-1.738,3.253-1.293,6.335,0.216,8.945
		c0.771,1.338,2.081,2.932,2.35,4.183l0.073,0.343l0.086,0.391c0.491,2.756-1.263,4.67-2.16,6.976
		c-0.986,2.538-1.873,5.319-0.837,8.782c0.924,3.101,3.929,4.931,6.629,5.416c2.318,0.415,4.301-0.073,5.235-0.238
		c-3.58,4.548-6.688,10.435-7,11.372c-0.314,0.946-1.621,3.478-0.873,4.528c0.506,0.367,0.835,0.304,1.517,0.379
		c0.757,0.084,1.543-0.022,2.195-0.158c1.651-0.347,2.319-1.834,3.127-3.82c3.251-8.019,3.752-10.9,3.647-8.336
		c-0.138,3.22,1.127,7.207,5.429,8.975l0.71,0.197c4.386,1.294,8.191-1.111,8.816-1.29l0.317-0.176l0.098-0.035
		c3.593-1.546,5.333-2.092,11.518,1.402c0,0,5.389,2.786,10.143-1.502c2.632-2.374,3.922-5.124,2.858-9.885
		c-0.377-1.11-0.69-1.802-0.89-2.177l0.714,0.601l0.425,0.307l0.385,0.241c3.95,1.854,7.831,0.777,10.83-2.77l0.037-0.036
		l0.442-0.551C75.934,54.137,77.603,50.085,75.663,45.637 M50.012,66.423l0.358,0.142C50.156,66.484,50,66.421,50.012,66.423
		 M61.498,55.339c0.026,0.007,0.05,0.011,0.076,0.015l0.032,0.016L61.498,55.339z M69.075,52.755l-0.063,0.068
		c0.01-0.012,0.018-0.027,0.031-0.039c-2.224,2.109-5.752,3.535-11.487-1.228l-3.819-2.952l-5.569-4.307l6.244,6.584
		c2.356,2.887,3.569,4.694,3.898,6.387c0.834,3.55,0.443,6.109-1.503,7.936c-1.336,1.252-3.606,2.208-6.027,1.508
		c-0.556-0.212-1.112-0.441-1.701-0.688c-3.246-1.341-6.432-2.782-9.649-1.613c-0.623,0.168-1.809,0.759-1.796,0.753
		c-0.756,0.218-4.744,2.433-7.997,1.232c-2.635-0.909-3.397-1.918-4.082-4.427c-0.079-0.273-0.121-0.514-0.134-0.775
		c-0.08-0.478-0.125-0.979-0.125-1.492c0-1.844,0.849-3.967,1.725-5.118l0.644-0.87c0.622-0.83,7.381-8.136,8.096-8.823
		c-0.607,0.397-6.13,4.005-9.647,7.501l-1.909,1.738c-0.623,0.549-1.603,1.097-2.023,1.191c-0.808,0.185-1.794,0.375-3.591-0.075
		c-1.992-0.551-4.328-2.06-4.992-4.556c-0.718-2.712,0.083-4.627,0.779-6.834c0.808-2.549,0.663-5.211,0.481-7.065l-0.025-0.12
		c-0.093-1.342-0.392-2.657-0.818-3.934c-0.688-2.074-2.129-4.766-0.964-7.222l0.233-0.427c2.547-3.195,5.58-2.971,7.31-2.819
		c1.213,0.119,4.524,0.23,9.006,4.561l4.388,4.388l-2.054-3.498c-0.377-0.586-1.478-2.125-4.696-6.458
		c-1.213-1.632-1.896-3.797-1.933-5.139c-0.165-3.313,1.553-5.631,3.683-6.635l0.442-0.196l0.644-0.201
		c3.293-0.482,5.605,1.345,8.396,2.187c2.802,0.845,5.448,0.95,8.653-0.35c0.314-0.113,0.663-0.224,1.012-0.382
		c4.786-2.185,7.44-0.736,7.44-0.736c0.911,0.352,1.897,1.161,2.6,2.324c-0.007-0.012-0.01-0.021-0.017-0.031l0.046,0.066
		c-0.009-0.011-0.017-0.023-0.029-0.035c1.282,2.274,0.949,5.248-1.432,7.941c-1.722,1.983-5.754,7.188-5.754,7.188l-2.146,3.111
		l5.991-5.484c1.52-1.352,3.569-2.627,4.756-3.186c0.608-0.283,7.616-3.007,10.604,2.088c1.588,2.71,0.59,5.738-0.214,7.757
		c0.002-0.016-0.123,0.43-0.123,0.43c0-0.011,0.12-0.418,0.123-0.43c-1.427,4.26-2.069,7.494,0.389,13.055
		c-0.007-0.017,0.224,0.666,0.224,0.665c0,0,0.203,0.649,0.197,0.637c-0.002-0.005-0.097-0.313-0.197-0.637
		c0.692,2.614-0.083,5.659-1.551,7.516C69.052,52.775,69.064,52.765,69.075,52.755"/>
</g>
</svg>
